<svg id="Layer_1" data-name="Layer 1" xmlns="http://www.w3.org/2000/svg" viewBox="0 0 48.17 56.69"><title>cart-plus</title><path d="M9.61,15H20.29a11.21,11.21,0,0,1,4.77-9A11,11,0,0,1,32.35,4c5.22.34,8.83,4.18,10,10.93H52.9V34H50.84V17.2H42.26c0,2.38,0,4.78,0,7.17,0,.31.43.61.68.9a2.42,2.42,0,0,1-.1,3.46,2.48,2.48,0,0,1-3.35,0,2.6,2.6,0,0,1-.11-3.49,3.1,3.1,0,0,0,.64-1.66c.07-2.11,0-4.22,0-6.4H22.53c0,2.37,0,4.68,0,7,0,.36.37.75.63,1.07a2.55,2.55,0,0,1-.07,3.48,2.46,2.46,0,0,1-3.5-3.46,3.73,3.73,0,0,0,.72-1.92c.09-2,0-4,0-6.14H11.86c0,.5-.07,1-.07,1.54q0,17.79,0,35.57c0,3.18,1.07,4.24,4.3,4.24H46.17c3.75,0,4.59-.84,4.66-4.61,0-.34,0-.68.06-1.11h1.92c1.12,4.6-1.39,7.85-6.08,7.85h-31c-4,0-6.14-2.12-6.15-6.11V15Zm13-.09H40c.3-4.65-3.87-8.75-8.76-8.72S22.33,10.3,22.65,14.86Z" transform="translate(-9.61 -4)"/><path d="M50.8,42.21V37.42H53V42.2h4.78v2.15H53v4.73h-2.2V44.36H46.07V42.21Z" transform="translate(-9.61 -4)"/></svg>